<svg width="24" height="24" viewBox="0 0 24 24" fill="none" xmlns="http://www.w3.org/2000/svg">
<path d="M21.5989 19.211C22.8889 16.5636 25.1972 10.086 20.0856 5.05079C13.5022 -1.43403 6.90056 3.43889 6.90056 3.43889L6.89611 3.46335C6.89611 3.46335 12.5 0.954909 17.5961 4.91906C22.6922 8.88321 21.4044 15.0629 21.4044 15.0629C21.4044 15.0629 21.3322 15.9322 20.8922 17.105C20.6083 17.8651 20.2283 18.5857 19.7617 19.2494C19.6933 19.34 19.6233 19.4294 19.5506 19.5173C19.2539 19.8816 18.931 20.2238 18.5844 20.5411C17.4539 21.5772 16.1228 22.1808 14.7556 22.3692C13.5138 22.5943 12.2337 22.4628 11.0636 21.9898C9.89353 21.5168 8.88137 20.7218 8.14445 19.6968C7.31696 18.5462 6.98015 17.1138 7.20811 15.7148C7.43606 14.3158 8.21011 13.0646 9.36 12.2365C10.2796 11.575 11.4241 11.3057 12.5421 11.4879C13.66 11.67 14.66 12.2888 15.3222 13.2081C15.5845 13.5727 15.7725 13.9854 15.8753 14.4227C15.9782 14.8599 15.994 15.3132 15.9217 15.7565C15.8495 16.1999 15.6907 16.6247 15.4544 17.0066C15.2181 17.3886 14.9089 17.7202 14.5444 17.9826C13.9556 18.4064 13.2225 18.5789 12.5066 18.462C11.7906 18.3452 11.1504 17.9486 10.7267 17.3596C10.5587 17.126 10.4383 16.8617 10.3725 16.5816C10.3067 16.3016 10.2968 16.0113 10.3432 15.7273C10.3896 15.4434 10.4916 15.1714 10.6432 14.9269C10.7948 14.6824 10.993 14.4703 11.2267 14.3025C11.4133 14.1681 11.6246 14.0717 11.8485 14.019C12.0723 13.9663 12.3044 13.9582 12.5314 13.9952C12.7584 14.0322 12.9759 14.1136 13.1714 14.2347C13.367 14.3558 13.5368 14.5143 13.6711 14.701C13.888 15.0027 13.9763 15.3782 13.9166 15.7449C13.8569 16.1117 13.6541 16.4398 13.3528 16.657L13.3189 16.6998C13.7109 16.4175 13.9747 15.9911 14.0524 15.5142C14.1302 15.0373 14.0154 14.5491 13.7333 14.1569C13.3802 13.6671 12.8471 13.3376 12.2512 13.2408C11.6554 13.144 11.0455 13.2877 10.5556 13.6405C10.2523 13.8588 9.99492 14.1348 9.79823 14.4526C9.60153 14.7704 9.46933 15.1239 9.40918 15.4928C9.34903 15.8617 9.3621 16.2389 9.44765 16.6028C9.5332 16.9667 9.68955 17.3101 9.90778 17.6136C10.1805 17.9929 10.5252 18.3148 10.9223 18.5608C11.3194 18.8068 11.7611 18.9722 12.222 19.0474C12.683 19.1226 13.1543 19.1062 13.6089 18.9991C14.0635 18.8921 14.4926 18.6964 14.8717 18.4234C15.3456 18.0823 15.7478 17.6512 16.0552 17.1546C16.3625 16.6579 16.5691 16.1056 16.663 15.5291C16.757 14.9526 16.7365 14.3632 16.6027 13.7946C16.4689 13.226 16.2245 12.6894 15.8833 12.2154C15.4572 11.6223 14.9184 11.1191 14.2978 10.7345C13.6772 10.3498 12.9869 10.0914 12.2663 9.97382C11.5458 9.85628 10.8092 9.88197 10.0986 10.0494C9.38799 10.2169 8.71735 10.5228 8.125 10.9498C7.3844 11.4827 6.75602 12.1564 6.27575 12.9324C5.79548 13.7084 5.47273 14.5715 5.32595 15.4723C5.17917 16.3731 5.21124 17.294 5.42031 18.1824C5.62938 19.0709 6.01137 19.9094 6.54445 20.65C7.73828 22.3155 9.48443 23.5027 11.4717 24C5.08945 23.7238 0 18.459 0 12.0058C0 5.37539 5.37278 0 12 0C18.6272 0 24 5.37539 24 12.0058C24.0041 14.6049 23.1611 17.1344 21.5989 19.211V19.211Z" fill="#4361EE"/>
</svg>
